<mxfile host="app.diagrams.net" modified="2024-01-16T18:44:48.966Z" agent="Mozilla/5.0 (Windows NT 10.0; Win64; x64) AppleWebKit/537.36 (KHTML, like Gecko) Chrome/120.0.0.0 Safari/537.36" etag="XyQMCiYSfOaOvFax56J4" version="22.1.18" type="github">
  <diagram name="Página-1" id="T51k41MZGoIPOJ7VWiH2">
    <mxGraphModel dx="2647" dy="1447" grid="1" gridSize="10" guides="1" tooltips="1" connect="1" arrows="1" fold="1" page="1" pageScale="1" pageWidth="827" pageHeight="1169" math="0" shadow="0">
      <root>
        <mxCell id="0" />
        <mxCell id="1" parent="0" />
        <mxCell id="kpTyDUhgBs5R1ed5H9SP-40" style="edgeStyle=orthogonalEdgeStyle;shape=connector;rounded=0;orthogonalLoop=1;jettySize=auto;html=1;exitX=0.5;exitY=1;exitDx=0;exitDy=0;entryX=0.5;entryY=0;entryDx=0;entryDy=0;labelBackgroundColor=default;strokeColor=default;strokeWidth=2;align=center;verticalAlign=middle;fontFamily=Tahoma;fontSize=11;fontColor=default;endArrow=classic;" edge="1" parent="1" source="WbwlSFrgMBep1RVpoRQw-51" target="WbwlSFrgMBep1RVpoRQw-59">
          <mxGeometry relative="1" as="geometry" />
        </mxCell>
        <mxCell id="kpTyDUhgBs5R1ed5H9SP-75" style="edgeStyle=orthogonalEdgeStyle;shape=connector;rounded=0;orthogonalLoop=1;jettySize=auto;html=1;exitX=0;exitY=0.5;exitDx=0;exitDy=0;entryX=0.5;entryY=0;entryDx=0;entryDy=0;labelBackgroundColor=default;strokeColor=default;strokeWidth=2;align=center;verticalAlign=middle;fontFamily=Tahoma;fontSize=11;fontColor=#FFFFFF;endArrow=classic;" edge="1" parent="1" source="WbwlSFrgMBep1RVpoRQw-51" target="WbwlSFrgMBep1RVpoRQw-58">
          <mxGeometry relative="1" as="geometry" />
        </mxCell>
        <mxCell id="kpTyDUhgBs5R1ed5H9SP-76" style="edgeStyle=orthogonalEdgeStyle;shape=connector;rounded=0;orthogonalLoop=1;jettySize=auto;html=1;exitX=1;exitY=0.5;exitDx=0;exitDy=0;entryX=0.5;entryY=0;entryDx=0;entryDy=0;labelBackgroundColor=default;strokeColor=default;strokeWidth=2;align=center;verticalAlign=middle;fontFamily=Tahoma;fontSize=11;fontColor=#FFFFFF;endArrow=classic;" edge="1" parent="1" source="WbwlSFrgMBep1RVpoRQw-51" target="WbwlSFrgMBep1RVpoRQw-60">
          <mxGeometry relative="1" as="geometry" />
        </mxCell>
        <mxCell id="WbwlSFrgMBep1RVpoRQw-51" value="&lt;font style=&quot;&quot;&gt;&lt;font size=&quot;1&quot; style=&quot;font-size: 13px;&quot;&gt;&lt;b style=&quot;&quot;&gt;&lt;u style=&quot;font-size: 50px;&quot;&gt;reNFT:&amp;nbsp;&lt;/u&gt;&lt;/b&gt;&lt;/font&gt;&lt;font style=&quot;font-size: 50px;&quot;&gt;&lt;b&gt;&lt;u&gt;Accumulator&lt;/u&gt;&lt;/b&gt;&lt;/font&gt;&lt;span style=&quot;font-size: 13px;&quot;&gt;.&lt;/span&gt;&lt;font style=&quot;font-size: 50px;&quot;&gt;&lt;b&gt;&lt;u&gt;sol&lt;/u&gt;&lt;/b&gt;&lt;/font&gt;&lt;br&gt;&lt;/font&gt;" style="text;html=1;strokeColor=none;fillColor=none;align=center;verticalAlign=middle;whiteSpace=wrap;rounded=0;fontColor=#2B2B2B;" parent="1" vertex="1">
          <mxGeometry x="954" y="110" width="573" height="70" as="geometry" />
        </mxCell>
        <mxCell id="WbwlSFrgMBep1RVpoRQw-54" value="" style="endArrow=none;html=1;rounded=0;" parent="1" edge="1">
          <mxGeometry relative="1" as="geometry">
            <mxPoint y="59.870000000000005" as="sourcePoint" />
            <mxPoint x="2470" y="56" as="targetPoint" />
          </mxGeometry>
        </mxCell>
        <mxCell id="WbwlSFrgMBep1RVpoRQw-55" value="" style="resizable=0;html=1;whiteSpace=wrap;align=right;verticalAlign=bottom;" parent="WbwlSFrgMBep1RVpoRQw-54" connectable="0" vertex="1">
          <mxGeometry x="1" relative="1" as="geometry" />
        </mxCell>
        <mxCell id="WbwlSFrgMBep1RVpoRQw-56" value="" style="endArrow=none;html=1;rounded=0;" parent="1" edge="1">
          <mxGeometry relative="1" as="geometry">
            <mxPoint x="5" y="1380" as="sourcePoint" />
            <mxPoint x="2475" y="1376.13" as="targetPoint" />
          </mxGeometry>
        </mxCell>
        <mxCell id="WbwlSFrgMBep1RVpoRQw-58" value="&lt;div style=&quot;font-size: 30px;&quot;&gt;Abstract Contract&lt;br&gt;&lt;/div&gt;" style="rounded=1;whiteSpace=wrap;html=1;fontFamily=Tahoma;fontSize=11;fillColor=#CC99FF;align=center;strokeWidth=1;strokeColor=default;gradientColor=#000000;glass=0;shadow=1;fontColor=#FFFFFF;" parent="1" vertex="1">
          <mxGeometry x="170" y="280" width="315" height="90" as="geometry" />
        </mxCell>
        <mxCell id="WbwlSFrgMBep1RVpoRQw-59" value="&lt;div style=&quot;&quot;&gt;&lt;font style=&quot;font-size: 30px;&quot;&gt;Functions&lt;/font&gt;&lt;br&gt;&lt;/div&gt;" style="rounded=1;whiteSpace=wrap;html=1;fontFamily=Tahoma;fontSize=11;fillColor=#CC99FF;align=center;strokeWidth=1;strokeColor=default;gradientColor=#000000;glass=0;shadow=1;fontColor=#FFFFFF;" parent="1" vertex="1">
          <mxGeometry x="1095" y="280" width="290" height="90" as="geometry" />
        </mxCell>
        <mxCell id="WbwlSFrgMBep1RVpoRQw-60" value="&lt;div style=&quot;font-size: 30px;&quot;&gt;Implementation Details (&lt;code style=&quot;border: 0px solid rgb(217, 217, 227); box-sizing: border-box; --tw-border-spacing-x: 0; --tw-border-spacing-y: 0; --tw-translate-x: 0; --tw-translate-y: 0; --tw-rotate: 0; --tw-skew-x: 0; --tw-skew-y: 0; --tw-scale-x: 1; --tw-scale-y: 1; --tw-pan-x: ; --tw-pan-y: ; --tw-pinch-zoom: ; --tw-scroll-snap-strictness: proximity; --tw-gradient-from-position: ; --tw-gradient-via-position: ; --tw-gradient-to-position: ; --tw-ordinal: ; --tw-slashed-zero: ; --tw-numeric-figure: ; --tw-numeric-spacing: ; --tw-numeric-fraction: ; --tw-ring-inset: ; --tw-ring-offset-width: 0px; --tw-ring-offset-color: #fff; --tw-ring-color: rgba(69,89,164,.5); --tw-ring-offset-shadow: 0 0 transparent; --tw-ring-shadow: 0 0 transparent; --tw-shadow: 0 0 transparent; --tw-shadow-colored: 0 0 transparent; --tw-blur: ; --tw-brightness: ; --tw-contrast: ; --tw-grayscale: ; --tw-hue-rotate: ; --tw-invert: ; --tw-saturate: ; --tw-sepia: ; --tw-drop-shadow: ; --tw-backdrop-blur: ; --tw-backdrop-brightness: ; --tw-backdrop-contrast: ; --tw-backdrop-grayscale: ; --tw-backdrop-hue-rotate: ; --tw-backdrop-invert: ; --tw-backdrop-opacity: ; --tw-backdrop-saturate: ; --tw-backdrop-sepia: ; font-size: 0.875em; color: var(--tw-prose-code); font-family: &amp;quot;Söhne Mono&amp;quot;, Monaco, &amp;quot;Andale Mono&amp;quot;, &amp;quot;Ubuntu Mono&amp;quot;, monospace !important;&quot;&gt;_insert&lt;/code&gt;)&lt;br&gt;&lt;/div&gt;" style="rounded=1;whiteSpace=wrap;html=1;fontFamily=Tahoma;fontSize=11;fillColor=#CC99FF;align=center;strokeWidth=1;strokeColor=default;gradientColor=#000000;glass=0;shadow=1;fontColor=#FFFFFF;" parent="1" vertex="1">
          <mxGeometry x="2000" y="280" width="290" height="90" as="geometry" />
        </mxCell>
        <mxCell id="WbwlSFrgMBep1RVpoRQw-63" value="&lt;div style=&quot;font-size: 30px;&quot;&gt;Implementation Details (&lt;code style=&quot;border: 0px solid rgb(217, 217, 227); box-sizing: border-box; --tw-border-spacing-x: 0; --tw-border-spacing-y: 0; --tw-translate-x: 0; --tw-translate-y: 0; --tw-rotate: 0; --tw-skew-x: 0; --tw-skew-y: 0; --tw-scale-x: 1; --tw-scale-y: 1; --tw-pan-x: ; --tw-pan-y: ; --tw-pinch-zoom: ; --tw-scroll-snap-strictness: proximity; --tw-gradient-from-position: ; --tw-gradient-via-position: ; --tw-gradient-to-position: ; --tw-ordinal: ; --tw-slashed-zero: ; --tw-numeric-figure: ; --tw-numeric-spacing: ; --tw-numeric-fraction: ; --tw-ring-inset: ; --tw-ring-offset-width: 0px; --tw-ring-offset-color: #fff; --tw-ring-color: rgba(69,89,164,.5); --tw-ring-offset-shadow: 0 0 transparent; --tw-ring-shadow: 0 0 transparent; --tw-shadow: 0 0 transparent; --tw-shadow-colored: 0 0 transparent; --tw-blur: ; --tw-brightness: ; --tw-contrast: ; --tw-grayscale: ; --tw-hue-rotate: ; --tw-invert: ; --tw-saturate: ; --tw-sepia: ; --tw-drop-shadow: ; --tw-backdrop-blur: ; --tw-backdrop-brightness: ; --tw-backdrop-contrast: ; --tw-backdrop-grayscale: ; --tw-backdrop-hue-rotate: ; --tw-backdrop-invert: ; --tw-backdrop-opacity: ; --tw-backdrop-saturate: ; --tw-backdrop-sepia: ; color: var(--tw-prose-code); font-family: &amp;quot;Söhne Mono&amp;quot;, Monaco, &amp;quot;Andale Mono&amp;quot;, &amp;quot;Ubuntu Mono&amp;quot;, monospace !important;&quot;&gt;_convertToStatic&lt;/code&gt;)&lt;br&gt;&lt;/div&gt;" style="rounded=1;whiteSpace=wrap;html=1;fontFamily=Tahoma;fontSize=11;fillColor=#CC99FF;align=center;strokeWidth=1;strokeColor=default;gradientColor=#000000;glass=0;shadow=1;fontColor=#FFFFFF;" parent="1" vertex="1">
          <mxGeometry x="1063" y="720" width="355" height="90" as="geometry" />
        </mxCell>
        <mxCell id="WbwlSFrgMBep1RVpoRQw-65" value="" style="shape=waypoint;sketch=0;fillStyle=solid;size=6;pointerEvents=1;points=[];fillColor=none;resizable=0;rotatable=0;perimeter=centerPerimeter;snapToPoint=1;rounded=1;shadow=1;glass=0;strokeColor=default;strokeWidth=5;align=center;verticalAlign=middle;fontFamily=Helvetica;fontSize=11;fontColor=default;html=1;" parent="1" vertex="1">
          <mxGeometry x="40" y="447.5" width="20" height="20" as="geometry" />
        </mxCell>
        <mxCell id="WbwlSFrgMBep1RVpoRQw-69" value="&lt;div style=&quot;&quot;&gt;&lt;div style=&quot;line-height: 19px;&quot;&gt;&lt;img alt=&quot;Rent 3D Color icon&quot; src=&quot;https://encrypted-tbn0.gstatic.com/images?q=tbn:ANd9GcQ1fNGAkGajAwjOKZ4xdke_tjEvNRBoJHIw5cpqq7Kbi-lnjmYdpM_x5VhwpRMz6cUCQ5I&amp;amp;usqp=CAU&quot;&gt;&lt;br&gt;&lt;/div&gt;&lt;/div&gt;" style="text;html=1;strokeColor=none;fillColor=none;align=center;verticalAlign=middle;whiteSpace=wrap;rounded=0;" parent="1" vertex="1">
          <mxGeometry x="1129.5" y="960" width="221" height="240" as="geometry" />
        </mxCell>
        <mxCell id="WbwlSFrgMBep1RVpoRQw-70" value="&lt;div style=&quot;&quot;&gt;&lt;font style=&quot;font-size: 27px;&quot;&gt;This contract is abstract, meaning it cannot be instantiated directly. Instead, it must be inherited and implemented by concrete contracts.&lt;/font&gt;&lt;br&gt;&lt;/div&gt;" style="text;html=1;strokeColor=none;fillColor=none;align=left;verticalAlign=middle;whiteSpace=wrap;rounded=0;fontSize=11;fontFamily=Tahoma;fontColor=default;" parent="1" vertex="1">
          <mxGeometry x="80" y="390" width="510" height="135" as="geometry" />
        </mxCell>
        <mxCell id="WbwlSFrgMBep1RVpoRQw-71" value="" style="shape=waypoint;sketch=0;fillStyle=solid;size=6;pointerEvents=1;points=[];fillColor=none;resizable=0;rotatable=0;perimeter=centerPerimeter;snapToPoint=1;rounded=1;shadow=1;glass=0;strokeColor=default;strokeWidth=5;align=center;verticalAlign=middle;fontFamily=Helvetica;fontSize=11;fontColor=default;html=1;" parent="1" vertex="1">
          <mxGeometry x="890" y="442.75" width="20" height="20" as="geometry" />
        </mxCell>
        <mxCell id="WbwlSFrgMBep1RVpoRQw-73" value="" style="shape=waypoint;sketch=0;fillStyle=solid;size=6;pointerEvents=1;points=[];fillColor=none;resizable=0;rotatable=0;perimeter=centerPerimeter;snapToPoint=1;rounded=1;shadow=1;glass=0;strokeColor=default;strokeWidth=5;align=center;verticalAlign=middle;fontFamily=Helvetica;fontSize=11;fontColor=default;html=1;" parent="1" vertex="1">
          <mxGeometry x="890" y="585" width="20" height="20" as="geometry" />
        </mxCell>
        <mxCell id="WbwlSFrgMBep1RVpoRQw-75" value="&lt;font style=&quot;font-size: 27px;&quot;&gt;&lt;code style=&quot;border: 0px solid rgb(217, 217, 227); box-sizing: border-box; --tw-border-spacing-x: 0; --tw-border-spacing-y: 0; --tw-translate-x: 0; --tw-translate-y: 0; --tw-rotate: 0; --tw-skew-x: 0; --tw-skew-y: 0; --tw-scale-x: 1; --tw-scale-y: 1; --tw-pan-x: ; --tw-pan-y: ; --tw-pinch-zoom: ; --tw-scroll-snap-strictness: proximity; --tw-gradient-from-position: ; --tw-gradient-via-position: ; --tw-gradient-to-position: ; --tw-ordinal: ; --tw-slashed-zero: ; --tw-numeric-figure: ; --tw-numeric-spacing: ; --tw-numeric-fraction: ; --tw-ring-inset: ; --tw-ring-offset-width: 0px; --tw-ring-offset-color: #fff; --tw-ring-color: rgba(69,89,164,.5); --tw-ring-offset-shadow: 0 0 transparent; --tw-ring-shadow: 0 0 transparent; --tw-shadow: 0 0 transparent; --tw-shadow-colored: 0 0 transparent; --tw-blur: ; --tw-brightness: ; --tw-contrast: ; --tw-grayscale: ; --tw-hue-rotate: ; --tw-invert: ; --tw-saturate: ; --tw-sepia: ; --tw-drop-shadow: ; --tw-backdrop-blur: ; --tw-backdrop-brightness: ; --tw-backdrop-contrast: ; --tw-backdrop-grayscale: ; --tw-backdrop-hue-rotate: ; --tw-backdrop-invert: ; --tw-backdrop-opacity: ; --tw-backdrop-saturate: ; --tw-backdrop-sepia: ; font-weight: 600; font-family: &amp;quot;Söhne Mono&amp;quot;, Monaco, &amp;quot;Andale Mono&amp;quot;, &amp;quot;Ubuntu Mono&amp;quot;, monospace !important;&quot;&gt;&lt;font color=&quot;#9933ff&quot;&gt;_insert&lt;/font&gt;&lt;/code&gt;: Adds an element to a byte-formatted data set, representing a &lt;code style=&quot;border: 0px solid rgb(217, 217, 227); box-sizing: border-box; --tw-border-spacing-x: 0; --tw-border-spacing-y: 0; --tw-translate-x: 0; --tw-translate-y: 0; --tw-rotate: 0; --tw-skew-x: 0; --tw-skew-y: 0; --tw-scale-x: 1; --tw-scale-y: 1; --tw-pan-x: ; --tw-pan-y: ; --tw-pinch-zoom: ; --tw-scroll-snap-strictness: proximity; --tw-gradient-from-position: ; --tw-gradient-via-position: ; --tw-gradient-to-position: ; --tw-ordinal: ; --tw-slashed-zero: ; --tw-numeric-figure: ; --tw-numeric-spacing: ; --tw-numeric-fraction: ; --tw-ring-inset: ; --tw-ring-offset-width: 0px; --tw-ring-offset-color: #fff; --tw-ring-color: rgba(69,89,164,.5); --tw-ring-offset-shadow: 0 0 transparent; --tw-ring-shadow: 0 0 transparent; --tw-shadow: 0 0 transparent; --tw-shadow-colored: 0 0 transparent; --tw-blur: ; --tw-brightness: ; --tw-contrast: ; --tw-grayscale: ; --tw-hue-rotate: ; --tw-invert: ; --tw-saturate: ; --tw-sepia: ; --tw-drop-shadow: ; --tw-backdrop-blur: ; --tw-backdrop-brightness: ; --tw-backdrop-contrast: ; --tw-backdrop-grayscale: ; --tw-backdrop-hue-rotate: ; --tw-backdrop-invert: ; --tw-backdrop-opacity: ; --tw-backdrop-saturate: ; --tw-backdrop-sepia: ; font-weight: 600; font-family: &amp;quot;Söhne Mono&amp;quot;, Monaco, &amp;quot;Andale Mono&amp;quot;, &amp;quot;Ubuntu Mono&amp;quot;, monospace !important;&quot;&gt;&lt;font color=&quot;#9933ff&quot;&gt;RentalAssetUpdate&lt;/font&gt;&lt;/code&gt;&lt;span style=&quot;font-family: Söhne, ui-sans-serif, system-ui, -apple-system, &amp;quot;Segoe UI&amp;quot;, Roboto, Ubuntu, Cantarell, &amp;quot;Noto Sans&amp;quot;, sans-serif, &amp;quot;Helvetica Neue&amp;quot;, Arial, &amp;quot;Apple Color Emoji&amp;quot;, &amp;quot;Segoe UI Emoji&amp;quot;, &amp;quot;Segoe UI Symbol&amp;quot;, &amp;quot;Noto Color Emoji&amp;quot;;&quot;&gt;. Data is stored at a specific memory location. Each element consists of a &lt;/span&gt;&lt;code style=&quot;border: 0px solid rgb(217, 217, 227); box-sizing: border-box; --tw-border-spacing-x: 0; --tw-border-spacing-y: 0; --tw-translate-x: 0; --tw-translate-y: 0; --tw-rotate: 0; --tw-skew-x: 0; --tw-skew-y: 0; --tw-scale-x: 1; --tw-scale-y: 1; --tw-pan-x: ; --tw-pan-y: ; --tw-pinch-zoom: ; --tw-scroll-snap-strictness: proximity; --tw-gradient-from-position: ; --tw-gradient-via-position: ; --tw-gradient-to-position: ; --tw-ordinal: ; --tw-slashed-zero: ; --tw-numeric-figure: ; --tw-numeric-spacing: ; --tw-numeric-fraction: ; --tw-ring-inset: ; --tw-ring-offset-width: 0px; --tw-ring-offset-color: #fff; --tw-ring-color: rgba(69,89,164,.5); --tw-ring-offset-shadow: 0 0 transparent; --tw-ring-shadow: 0 0 transparent; --tw-shadow: 0 0 transparent; --tw-shadow-colored: 0 0 transparent; --tw-blur: ; --tw-brightness: ; --tw-contrast: ; --tw-grayscale: ; --tw-hue-rotate: ; --tw-invert: ; --tw-saturate: ; --tw-sepia: ; --tw-drop-shadow: ; --tw-backdrop-blur: ; --tw-backdrop-brightness: ; --tw-backdrop-contrast: ; --tw-backdrop-grayscale: ; --tw-backdrop-hue-rotate: ; --tw-backdrop-invert: ; --tw-backdrop-opacity: ; --tw-backdrop-saturate: ; --tw-backdrop-sepia: ; font-weight: 600; font-family: &amp;quot;Söhne Mono&amp;quot;, Monaco, &amp;quot;Andale Mono&amp;quot;, &amp;quot;Ubuntu Mono&amp;quot;, monospace !important;&quot;&gt;&lt;font color=&quot;#9933ff&quot;&gt;rentalId&lt;/font&gt;&lt;/code&gt;&lt;span style=&quot;font-family: Söhne, ui-sans-serif, system-ui, -apple-system, &amp;quot;Segoe UI&amp;quot;, Roboto, Ubuntu, Cantarell, &amp;quot;Noto Sans&amp;quot;, sans-serif, &amp;quot;Helvetica Neue&amp;quot;, Arial, &amp;quot;Apple Color Emoji&amp;quot;, &amp;quot;Segoe UI Emoji&amp;quot;, &amp;quot;Segoe UI Symbol&amp;quot;, &amp;quot;Noto Color Emoji&amp;quot;;&quot;&gt; and an amount (&lt;/span&gt;&lt;code style=&quot;border: 0px solid rgb(217, 217, 227); box-sizing: border-box; --tw-border-spacing-x: 0; --tw-border-spacing-y: 0; --tw-translate-x: 0; --tw-translate-y: 0; --tw-rotate: 0; --tw-skew-x: 0; --tw-skew-y: 0; --tw-scale-x: 1; --tw-scale-y: 1; --tw-pan-x: ; --tw-pan-y: ; --tw-pinch-zoom: ; --tw-scroll-snap-strictness: proximity; --tw-gradient-from-position: ; --tw-gradient-via-position: ; --tw-gradient-to-position: ; --tw-ordinal: ; --tw-slashed-zero: ; --tw-numeric-figure: ; --tw-numeric-spacing: ; --tw-numeric-fraction: ; --tw-ring-inset: ; --tw-ring-offset-width: 0px; --tw-ring-offset-color: #fff; --tw-ring-color: rgba(69,89,164,.5); --tw-ring-offset-shadow: 0 0 transparent; --tw-ring-shadow: 0 0 transparent; --tw-shadow: 0 0 transparent; --tw-shadow-colored: 0 0 transparent; --tw-blur: ; --tw-brightness: ; --tw-contrast: ; --tw-grayscale: ; --tw-hue-rotate: ; --tw-invert: ; --tw-saturate: ; --tw-sepia: ; --tw-drop-shadow: ; --tw-backdrop-blur: ; --tw-backdrop-brightness: ; --tw-backdrop-contrast: ; --tw-backdrop-grayscale: ; --tw-backdrop-hue-rotate: ; --tw-backdrop-invert: ; --tw-backdrop-opacity: ; --tw-backdrop-saturate: ; --tw-backdrop-sepia: ; font-weight: 600; font-family: &amp;quot;Söhne Mono&amp;quot;, Monaco, &amp;quot;Andale Mono&amp;quot;, &amp;quot;Ubuntu Mono&amp;quot;, monospace !important;&quot;&gt;&lt;font color=&quot;#9933ff&quot;&gt;amount&lt;/font&gt;&lt;/code&gt;&lt;span style=&quot;font-family: Söhne, ui-sans-serif, system-ui, -apple-system, &amp;quot;Segoe UI&amp;quot;, Roboto, Ubuntu, Cantarell, &amp;quot;Noto Sans&amp;quot;, sans-serif, &amp;quot;Helvetica Neue&amp;quot;, Arial, &amp;quot;Apple Color Emoji&amp;quot;, &amp;quot;Segoe UI Emoji&amp;quot;, &amp;quot;Segoe UI Symbol&amp;quot;, &amp;quot;Noto Color Emoji&amp;quot;;&quot;&gt;).&lt;/span&gt;&lt;/font&gt;" style="text;html=1;strokeColor=none;fillColor=none;align=left;verticalAlign=middle;whiteSpace=wrap;rounded=0;fontSize=11;fontFamily=Helvetica;fontColor=default;" parent="1" vertex="1">
          <mxGeometry x="925" y="375.5" width="632" height="154.5" as="geometry" />
        </mxCell>
        <mxCell id="kpTyDUhgBs5R1ed5H9SP-78" style="edgeStyle=orthogonalEdgeStyle;shape=connector;rounded=0;orthogonalLoop=1;jettySize=auto;html=1;exitX=0.5;exitY=1;exitDx=0;exitDy=0;entryX=0;entryY=0.75;entryDx=0;entryDy=0;labelBackgroundColor=default;strokeColor=default;strokeWidth=2;align=center;verticalAlign=middle;fontFamily=Tahoma;fontSize=11;fontColor=#FFFFFF;endArrow=classic;" edge="1" parent="1" source="WbwlSFrgMBep1RVpoRQw-79" target="WbwlSFrgMBep1RVpoRQw-69">
          <mxGeometry relative="1" as="geometry" />
        </mxCell>
        <mxCell id="WbwlSFrgMBep1RVpoRQw-79" value="&lt;div style=&quot;&quot;&gt;&lt;div style=&quot;line-height: 19px;&quot;&gt;&lt;img alt=&quot;NFT Smart Contract 3D Icon download in PNG, OBJ or Blend format&quot; src=&quot;https://encrypted-tbn0.gstatic.com/images?q=tbn:ANd9GcSOmkL_oHrnEE1ibQogsUEVXztsdTXtQlY7VA&amp;amp;usqp=CAU&quot;&gt;&lt;br&gt;&lt;/div&gt;&lt;/div&gt;" style="text;html=1;strokeColor=none;fillColor=none;align=center;verticalAlign=middle;whiteSpace=wrap;rounded=0;" parent="1" vertex="1">
          <mxGeometry x="217" y="590" width="221" height="240" as="geometry" />
        </mxCell>
        <mxCell id="WbwlSFrgMBep1RVpoRQw-80" value="&lt;font style=&quot;font-size: 27px;&quot;&gt;&lt;code style=&quot;border: 0px solid rgb(217, 217, 227); box-sizing: border-box; --tw-border-spacing-x: 0; --tw-border-spacing-y: 0; --tw-translate-x: 0; --tw-translate-y: 0; --tw-rotate: 0; --tw-skew-x: 0; --tw-skew-y: 0; --tw-scale-x: 1; --tw-scale-y: 1; --tw-pan-x: ; --tw-pan-y: ; --tw-pinch-zoom: ; --tw-scroll-snap-strictness: proximity; --tw-gradient-from-position: ; --tw-gradient-via-position: ; --tw-gradient-to-position: ; --tw-ordinal: ; --tw-slashed-zero: ; --tw-numeric-figure: ; --tw-numeric-spacing: ; --tw-numeric-fraction: ; --tw-ring-inset: ; --tw-ring-offset-width: 0px; --tw-ring-offset-color: #fff; --tw-ring-color: rgba(69,89,164,.5); --tw-ring-offset-shadow: 0 0 transparent; --tw-ring-shadow: 0 0 transparent; --tw-shadow: 0 0 transparent; --tw-shadow-colored: 0 0 transparent; --tw-blur: ; --tw-brightness: ; --tw-contrast: ; --tw-grayscale: ; --tw-hue-rotate: ; --tw-invert: ; --tw-saturate: ; --tw-sepia: ; --tw-drop-shadow: ; --tw-backdrop-blur: ; --tw-backdrop-brightness: ; --tw-backdrop-contrast: ; --tw-backdrop-grayscale: ; --tw-backdrop-hue-rotate: ; --tw-backdrop-invert: ; --tw-backdrop-opacity: ; --tw-backdrop-saturate: ; --tw-backdrop-sepia: ; font-weight: 600; font-family: &amp;quot;Söhne Mono&amp;quot;, Monaco, &amp;quot;Andale Mono&amp;quot;, &amp;quot;Ubuntu Mono&amp;quot;, monospace !important;&quot;&gt;&lt;font color=&quot;#9933ff&quot;&gt;_convertToStatic&lt;/font&gt;&lt;/code&gt;: Converts the byte-formatted data set created by &lt;code style=&quot;border: 0px solid rgb(217, 217, 227); box-sizing: border-box; --tw-border-spacing-x: 0; --tw-border-spacing-y: 0; --tw-translate-x: 0; --tw-translate-y: 0; --tw-rotate: 0; --tw-skew-x: 0; --tw-skew-y: 0; --tw-scale-x: 1; --tw-scale-y: 1; --tw-pan-x: ; --tw-pan-y: ; --tw-pinch-zoom: ; --tw-scroll-snap-strictness: proximity; --tw-gradient-from-position: ; --tw-gradient-via-position: ; --tw-gradient-to-position: ; --tw-ordinal: ; --tw-slashed-zero: ; --tw-numeric-figure: ; --tw-numeric-spacing: ; --tw-numeric-fraction: ; --tw-ring-inset: ; --tw-ring-offset-width: 0px; --tw-ring-offset-color: #fff; --tw-ring-color: rgba(69,89,164,.5); --tw-ring-offset-shadow: 0 0 transparent; --tw-ring-shadow: 0 0 transparent; --tw-shadow: 0 0 transparent; --tw-shadow-colored: 0 0 transparent; --tw-blur: ; --tw-brightness: ; --tw-contrast: ; --tw-grayscale: ; --tw-hue-rotate: ; --tw-invert: ; --tw-saturate: ; --tw-sepia: ; --tw-drop-shadow: ; --tw-backdrop-blur: ; --tw-backdrop-brightness: ; --tw-backdrop-contrast: ; --tw-backdrop-grayscale: ; --tw-backdrop-hue-rotate: ; --tw-backdrop-invert: ; --tw-backdrop-opacity: ; --tw-backdrop-saturate: ; --tw-backdrop-sepia: ; font-weight: 600; font-family: &amp;quot;Söhne Mono&amp;quot;, Monaco, &amp;quot;Andale Mono&amp;quot;, &amp;quot;Ubuntu Mono&amp;quot;, monospace !important;&quot;&gt;&lt;font color=&quot;#9933ff&quot;&gt;_insert&lt;/font&gt;&lt;/code&gt;&lt;span style=&quot;font-family: Söhne, ui-sans-serif, system-ui, -apple-system, &amp;quot;Segoe UI&amp;quot;, Roboto, Ubuntu, Cantarell, &amp;quot;Noto Sans&amp;quot;, sans-serif, &amp;quot;Helvetica Neue&amp;quot;, Arial, &amp;quot;Apple Color Emoji&amp;quot;, &amp;quot;Segoe UI Emoji&amp;quot;, &amp;quot;Segoe UI Symbol&amp;quot;, &amp;quot;Noto Color Emoji&amp;quot;;&quot;&gt; into a conventional Solidity array. It extracts each element and creates an array of &lt;/span&gt;&lt;code style=&quot;border: 0px solid rgb(217, 217, 227); box-sizing: border-box; --tw-border-spacing-x: 0; --tw-border-spacing-y: 0; --tw-translate-x: 0; --tw-translate-y: 0; --tw-rotate: 0; --tw-skew-x: 0; --tw-skew-y: 0; --tw-scale-x: 1; --tw-scale-y: 1; --tw-pan-x: ; --tw-pan-y: ; --tw-pinch-zoom: ; --tw-scroll-snap-strictness: proximity; --tw-gradient-from-position: ; --tw-gradient-via-position: ; --tw-gradient-to-position: ; --tw-ordinal: ; --tw-slashed-zero: ; --tw-numeric-figure: ; --tw-numeric-spacing: ; --tw-numeric-fraction: ; --tw-ring-inset: ; --tw-ring-offset-width: 0px; --tw-ring-offset-color: #fff; --tw-ring-color: rgba(69,89,164,.5); --tw-ring-offset-shadow: 0 0 transparent; --tw-ring-shadow: 0 0 transparent; --tw-shadow: 0 0 transparent; --tw-shadow-colored: 0 0 transparent; --tw-blur: ; --tw-brightness: ; --tw-contrast: ; --tw-grayscale: ; --tw-hue-rotate: ; --tw-invert: ; --tw-saturate: ; --tw-sepia: ; --tw-drop-shadow: ; --tw-backdrop-blur: ; --tw-backdrop-brightness: ; --tw-backdrop-contrast: ; --tw-backdrop-grayscale: ; --tw-backdrop-hue-rotate: ; --tw-backdrop-invert: ; --tw-backdrop-opacity: ; --tw-backdrop-saturate: ; --tw-backdrop-sepia: ; font-weight: 600; font-family: &amp;quot;Söhne Mono&amp;quot;, Monaco, &amp;quot;Andale Mono&amp;quot;, &amp;quot;Ubuntu Mono&amp;quot;, monospace !important;&quot;&gt;&lt;font color=&quot;#9933ff&quot;&gt;RentalAssetUpdate&lt;/font&gt;&lt;/code&gt;&lt;span style=&quot;font-family: Söhne, ui-sans-serif, system-ui, -apple-system, &amp;quot;Segoe UI&amp;quot;, Roboto, Ubuntu, Cantarell, &amp;quot;Noto Sans&amp;quot;, sans-serif, &amp;quot;Helvetica Neue&amp;quot;, Arial, &amp;quot;Apple Color Emoji&amp;quot;, &amp;quot;Segoe UI Emoji&amp;quot;, &amp;quot;Segoe UI Symbol&amp;quot;, &amp;quot;Noto Color Emoji&amp;quot;;&quot;&gt; structures.&lt;/span&gt;&lt;/font&gt;" style="text;html=1;strokeColor=none;fillColor=none;align=left;verticalAlign=middle;whiteSpace=wrap;rounded=0;fontSize=11;fontFamily=Helvetica;fontColor=default;" parent="1" vertex="1">
          <mxGeometry x="940" y="540" width="600" height="140" as="geometry" />
        </mxCell>
        <mxCell id="WbwlSFrgMBep1RVpoRQw-107" value="&lt;font style=&quot;font-size: 35px;&quot;&gt;&lt;br&gt;&lt;/font&gt;&lt;h1 style=&quot;background-image: none; background-position: initial; background-size: initial; background-repeat: initial; background-attachment: initial; background-origin: initial; background-clip: initial; border: none; box-sizing: border-box; font-style: normal; margin: 0.25em 0px 0.25rem; padding: 0px; vertical-align: baseline; font-family: &amp;quot;Satoshi Variable&amp;quot;, sans-serif; font-weight: 700; line-height: 100%; font-variant-ligatures: normal; font-variant-caps: normal; letter-spacing: normal; orphans: 2; text-indent: 0px; text-transform: none; widows: 2; word-spacing: 0px; -webkit-text-stroke-width: 0px; text-decoration-thickness: initial; text-decoration-style: initial; text-decoration-color: initial; font-size: 35px;&quot; class=&quot;type__headline__xs&quot;&gt;reNFT&lt;/h1&gt;&lt;div style=&quot;font-size: 33px;&quot;&gt;&lt;font color=&quot;#999999&quot; style=&quot;font-size: 33px;&quot;&gt;Collateral-free, permissionless, and highly customizable EVM NFT rentals&lt;br&gt;&lt;/font&gt;&lt;/div&gt;&lt;font style=&quot;font-size: 33px;&quot;&gt;&lt;br&gt;&lt;/font&gt;" style="text;html=1;strokeColor=none;fillColor=none;align=center;verticalAlign=middle;whiteSpace=wrap;rounded=0;fontSize=11;fontFamily=Helvetica;fontColor=default;" parent="1" vertex="1">
          <mxGeometry x="682.5" y="1230" width="1115" height="90" as="geometry" />
        </mxCell>
        <mxCell id="WbwlSFrgMBep1RVpoRQw-108" value="&lt;font style=&quot;font-size: 20px;&quot;&gt;Made by Catellatech C4 Wardens&lt;/font&gt;" style="text;html=1;strokeColor=none;fillColor=none;align=center;verticalAlign=middle;whiteSpace=wrap;rounded=0;" parent="1" vertex="1">
          <mxGeometry x="1083" y="1330" width="314.5" height="50" as="geometry" />
        </mxCell>
        <mxCell id="kpTyDUhgBs5R1ed5H9SP-32" value="&lt;font style=&quot;font-size: 27px;&quot;&gt;Uses the &lt;code style=&quot;border: 0px solid rgb(217, 217, 227); box-sizing: border-box; --tw-border-spacing-x: 0; --tw-border-spacing-y: 0; --tw-translate-x: 0; --tw-translate-y: 0; --tw-rotate: 0; --tw-skew-x: 0; --tw-skew-y: 0; --tw-scale-x: 1; --tw-scale-y: 1; --tw-pan-x: ; --tw-pan-y: ; --tw-pinch-zoom: ; --tw-scroll-snap-strictness: proximity; --tw-gradient-from-position: ; --tw-gradient-via-position: ; --tw-gradient-to-position: ; --tw-ordinal: ; --tw-slashed-zero: ; --tw-numeric-figure: ; --tw-numeric-spacing: ; --tw-numeric-fraction: ; --tw-ring-inset: ; --tw-ring-offset-width: 0px; --tw-ring-offset-color: #fff; --tw-ring-color: rgba(69,89,164,.5); --tw-ring-offset-shadow: 0 0 transparent; --tw-ring-shadow: 0 0 transparent; --tw-shadow: 0 0 transparent; --tw-shadow-colored: 0 0 transparent; --tw-blur: ; --tw-brightness: ; --tw-contrast: ; --tw-grayscale: ; --tw-hue-rotate: ; --tw-invert: ; --tw-saturate: ; --tw-sepia: ; --tw-drop-shadow: ; --tw-backdrop-blur: ; --tw-backdrop-brightness: ; --tw-backdrop-contrast: ; --tw-backdrop-grayscale: ; --tw-backdrop-hue-rotate: ; --tw-backdrop-invert: ; --tw-backdrop-opacity: ; --tw-backdrop-saturate: ; --tw-backdrop-sepia: ; font-weight: 600; font-family: &amp;quot;Söhne Mono&amp;quot;, Monaco, &amp;quot;Andale Mono&amp;quot;, &amp;quot;Ubuntu Mono&amp;quot;, monospace !important;&quot;&gt;assembly&lt;/code&gt;&lt;span style=&quot;font-family: Söhne, ui-sans-serif, system-ui, -apple-system, &amp;quot;Segoe UI&amp;quot;, Roboto, Ubuntu, Cantarell, &amp;quot;Noto Sans&amp;quot;, sans-serif, &amp;quot;Helvetica Neue&amp;quot;, Arial, &amp;quot;Apple Color Emoji&amp;quot;, &amp;quot;Segoe UI Emoji&amp;quot;, &amp;quot;Segoe UI Symbol&amp;quot;, &amp;quot;Noto Color Emoji&amp;quot;;&quot;&gt; statement to access data stored in byte format.&lt;/span&gt;&lt;/font&gt;" style="text;html=1;strokeColor=none;fillColor=none;align=left;verticalAlign=middle;whiteSpace=wrap;rounded=0;fontSize=11;fontFamily=Helvetica;fontColor=default;" vertex="1" parent="1">
          <mxGeometry x="820" y="820" width="840" height="44" as="geometry" />
        </mxCell>
        <mxCell id="kpTyDUhgBs5R1ed5H9SP-49" value="&lt;font style=&quot;font-size: 27px;&quot;&gt;Uses the &lt;code style=&quot;border: 0px solid rgb(217, 217, 227); box-sizing: border-box; --tw-border-spacing-x: 0; --tw-border-spacing-y: 0; --tw-translate-x: 0; --tw-translate-y: 0; --tw-rotate: 0; --tw-skew-x: 0; --tw-skew-y: 0; --tw-scale-x: 1; --tw-scale-y: 1; --tw-pan-x: ; --tw-pan-y: ; --tw-pinch-zoom: ; --tw-scroll-snap-strictness: proximity; --tw-gradient-from-position: ; --tw-gradient-via-position: ; --tw-gradient-to-position: ; --tw-ordinal: ; --tw-slashed-zero: ; --tw-numeric-figure: ; --tw-numeric-spacing: ; --tw-numeric-fraction: ; --tw-ring-inset: ; --tw-ring-offset-width: 0px; --tw-ring-offset-color: #fff; --tw-ring-color: rgba(69,89,164,.5); --tw-ring-offset-shadow: 0 0 transparent; --tw-ring-shadow: 0 0 transparent; --tw-shadow: 0 0 transparent; --tw-shadow-colored: 0 0 transparent; --tw-blur: ; --tw-brightness: ; --tw-contrast: ; --tw-grayscale: ; --tw-hue-rotate: ; --tw-invert: ; --tw-saturate: ; --tw-sepia: ; --tw-drop-shadow: ; --tw-backdrop-blur: ; --tw-backdrop-brightness: ; --tw-backdrop-contrast: ; --tw-backdrop-grayscale: ; --tw-backdrop-hue-rotate: ; --tw-backdrop-invert: ; --tw-backdrop-opacity: ; --tw-backdrop-saturate: ; --tw-backdrop-sepia: ; font-weight: 600; font-family: &amp;quot;Söhne Mono&amp;quot;, Monaco, &amp;quot;Andale Mono&amp;quot;, &amp;quot;Ubuntu Mono&amp;quot;, monospace !important;&quot;&gt;assembly&lt;/code&gt;&lt;span style=&quot;font-family: Söhne, ui-sans-serif, system-ui, -apple-system, &amp;quot;Segoe UI&amp;quot;, Roboto, Ubuntu, Cantarell, &amp;quot;Noto Sans&amp;quot;, sans-serif, &amp;quot;Helvetica Neue&amp;quot;, Arial, &amp;quot;Apple Color Emoji&amp;quot;, &amp;quot;Segoe UI Emoji&amp;quot;, &amp;quot;Segoe UI Symbol&amp;quot;, &amp;quot;Noto Color Emoji&amp;quot;;&quot;&gt; statement to directly access memory and manipulate data efficiently.&lt;/span&gt;&lt;/font&gt;" style="text;html=1;strokeColor=none;fillColor=none;align=left;verticalAlign=middle;whiteSpace=wrap;rounded=0;fontSize=11;fontFamily=Helvetica;fontColor=default;" vertex="1" parent="1">
          <mxGeometry x="1860" y="370" width="570" height="90" as="geometry" />
        </mxCell>
        <mxCell id="kpTyDUhgBs5R1ed5H9SP-50" value="" style="shape=waypoint;sketch=0;fillStyle=solid;size=6;pointerEvents=1;points=[];fillColor=none;resizable=0;rotatable=0;perimeter=centerPerimeter;snapToPoint=1;rounded=1;shadow=1;glass=0;strokeColor=default;strokeWidth=5;align=center;verticalAlign=middle;fontFamily=Helvetica;fontSize=11;fontColor=default;html=1;" vertex="1" parent="1">
          <mxGeometry x="1820" y="405" width="20" height="20" as="geometry" />
        </mxCell>
        <mxCell id="kpTyDUhgBs5R1ed5H9SP-80" style="edgeStyle=orthogonalEdgeStyle;shape=connector;rounded=0;orthogonalLoop=1;jettySize=auto;html=1;exitX=0.5;exitY=1;exitDx=0;exitDy=0;entryX=1;entryY=0.75;entryDx=0;entryDy=0;labelBackgroundColor=default;strokeColor=default;strokeWidth=2;align=center;verticalAlign=middle;fontFamily=Tahoma;fontSize=11;fontColor=#FFFFFF;endArrow=classic;" edge="1" parent="1" source="kpTyDUhgBs5R1ed5H9SP-52" target="WbwlSFrgMBep1RVpoRQw-69">
          <mxGeometry relative="1" as="geometry" />
        </mxCell>
        <mxCell id="kpTyDUhgBs5R1ed5H9SP-52" value="&lt;div style=&quot;&quot;&gt;&lt;div style=&quot;line-height: 19px;&quot;&gt;&lt;img alt=&quot;3D Implementation icon. Trendy modern 3d implementation icon on transparent  background from general collection, 3d illustration 13828921 PNG&quot; src=&quot;data:image/jpeg;base64,/9j/4AAQSkZJRgABAQAAAQABAAD/2wCEAAoGBxQSExQTExMWFxYWGRwXGBkWGBYgGhgWGRocHxgcGRcZHyojGRwrIBgXIzQjKSsuPT0xGCE2OzYvOiowMS4BCwsLDw4PHRERHTsoIigyMDAwMC41MDg1MDgyLjAwMDAwMjAwMDAwMDAyMDAwMDIyMDA5MDAwMC4wLjAwMDAwOP/AABEIAKcBLQMBIgACEQEDEQH/xAAcAAEAAgMBAQEAAAAAAAAAAAAABgcDBAUBAgj/xABJEAACAQIDBQQGCAMEBwkAAAABAgMAEQQSIQUGMUFREyJhcQcyQlKBkRQjYnKSobHBQ4LRU5Oi0hUWM0Rjc7IXJCVUg8LD0/D/xAAZAQEAAwEBAAAAAAAAAAAAAAAAAwQFAgH/xAAsEQACAgEEAAUDBAMBAAAAAAAAAQIDEQQSITEiQVFhoRNxkTKBsfAjweFC/9oADAMBAAIRAxEAPwC5qUpQClKUApSlAKUpQClKUApSlAeUpWvicWieswBPAcSfJRqa8bS5YSyZ6523dtxYRFklvlZwgyi/eIJF+g7p/KuXtLfOKMlVN2HEDvsPNU0UeLMKhW9O/wBG6WlRChN1EnfGZeiRCxtfg0nOq89RHqPL9ieNEnzLhFk7P27BOgeOS6nmysouDYg5gLG4ItW9HKrC6kEdQQf0qq9k70yiMKsMau3eUCMpZSBq0SlmLX5nKOHe6bGSZ3EkszlhwynKF8lXQfHOfGoVrH5omek9GWgK+JHABJIAGpJ4ADjc1yt1p2aDvMWIYi7Ek2sDqTqeNfO+z2wWIHvJ2Z8pCEP5Mat71s3e2Sq4Yns98HXRwwuCCOoNfdU6u2cShuJg330jb5d1Tb+aungd+sQmjxlupjc3/DJmX5MKrR1sf/SwWJaSXk8ln0qJbL39hkIViFb3XHZt5AMSrH+YVIsPjkc2DWb3TofGwPEeIuKsQuhPpledc4do3KUpUpwKUpQClKUApSlAKUpQClKUApSlAKUpQClKUApSlAKUpQClK8oBWDE4hYxmdrD9TyAHEnwFa+1dpLCB7TtfKt7XtxJPsqLi7eIGpIBrneDeoyEv22SMXBm4XGoKwDXKtwQZLEsQQobKcsFtyhwuWTVUufPkSXbu+IQmNAcwtdVK5hfgZHPdiB6asb6WOlRrEvPNftHyKdSq5gD97USSHxcr92tLY20I5AOxTKg4FvWN+LWJOUnqSWPMmpHs7ZUs3qL3febRfnz+F6oSdlj9fYvKNdS/2caPZ0agDLmtwDWsPJAAoPiBWltjYgxTwltViYswFwSpGtivCxAPwqxsHupGushLnpwX5DU/OusMCgRowoVWBUhQBoRY/Gp69LPtvBFPVR8uSu8LhlQZUUC54Aak9TzY+Jrt4Dd2aSxbuL9r1vw/1tUnwWzYoR3EAPXiT8TrXPG3GaSZVUBY37MMbnOwVS5ABFgC2XzU0+jCC3WM5d85vEEb+zMAsKZFJOtyTzJt/StfebAvPh3ijtmbLbMSBo6k6gHkDWP/AEpJ9n8J/wA1fWyNrGSWaFwoaPI65b96OQEBiDwOdJVtc+qOtTwtrmtkWQSrnF7mQPF7o4tP4WYdUZT+V7/lXAx2HeI2kR0PR1Kn5GrxrFPArqVdVZTxDAEHzBqOWki+mdrUvzRQ2IxjEZWs69HF/kTwr3Zm88uHIVJLpf8A2Uuq6e7fVT4g/CrQ256OsLOCY7wueaapfxjOlvBStVPv3uRi8Gpdo+0hGvaxXKgfbHFPM6eJqvHSTi+fgsRvjPj+Syd2N/Emslzn/spGGb/05To/k2uvEWqZ4TGJILqb2NiNQVPRlOqnUaHwr8qYLHOGAve3C51HkeVWTuhvu4KrO5VtFSci+g4JMPbTU/MkEcRYVk6niXK+TidEZrMOC66VzdkbWWYZT3ZFALLe4IPBkb20PI/AgHSulVqMlJZRSaaeGe0pSujwUpSgFKUoBSlKAUpSgFKUoBSlKAUpSgFKUoD5tWhtjaIgUG2Z2OVEvbM1r8eSgXJPIA8eB2sTiFjRpHYKiKWZjwVVFySelqrjeLaxkLyS3QFLuLkNDhyTkiFtVllK3a2oCm1yiXhut2Ljt9EtVe989I5u9O3gVeSR86MbG2hxDqSMii/dw6HMLX1IbU99jWuNxM2LlAszuxyoiAnU2AVVHgANBwA5AAdXaM0mLmARCSxEcUSD1RoFRVGg0A+AA0Ci1v8Ao63Aj2enayWfEuO8/ERg+xH4dTz8tKgohl5+S5O2Ncf4NL0d+j9sPEj4yxe1xGDdU8HI9dvAaedTuWVY1uxCqo8gBy/pasW1doLBE8zglUXMQouT5VG8NtP6WqTXuDqqjhGeBFubjUFj42sCRXdtkaFwuWVoRnc8vo7UW2gTqjBeR9q3Vk4jyBJ6gHQb+HxKOLqwPW3EHoRxB8DUcrxlB4gG3UA/rVWOuku1knlpE/0s7m0toCNSBZpLd1L8+RY+yvU/K5sDwMFh+zQJfMdSzWtmdiWdrcrszH41qYzbMMJyFhm49nGCzfgUaeZtXLl3xuSI4CSPedb/AIUzkVDffKzywiSqnZ7sk96xRgpNHMtyVVo3Ue1G5U6faVlBHgXHE1F/9bZv/LfnMPzMVZYN9o75ZYnQ/ZKvbzA7w+VRQk4SUl2SzrysMsWDHIwurjxF7EeanUHwNYMRtVF9U5z9m1h5twHlqfA1HsBtOKdc0UiuB0Oo8wdRW0Wq5LXSxhLkqrSLPLNyPbLK15FGQ80zEx/eB1ZftAC3NbXI68cgYAgggi4I1BB4EHmKjl60xtn6NMqJqrEdomlg0jZY8g9l2bMehCSEjNa/Wn1Tb2y/Jzbp0lmJyd9/RNDMWnwQWGbiY+EUh8B/DbxGnUC5NVgcNJE7RyoUdDlZGFiD0I/MEeBFfpioxvvudHj0zCyToPq5Ov2HtxX9L3HMGzfVuWV2R1XOPD6K83T3gMZSJ5CgU/VSHUwueTD2om0BH6aEWvsLavbocy5JUOWRL3ytyKn2kYaq3TQ2IIFE4jCPE7xSKVdDlZT16eI6Hx6GpjuhtxwFZbtNh19UcZ8NfvR68ZF4rw7wAuAzVUotdcsS6fwT21qyOV2WzSsGExKSokiMGR1DKw4MrC4I+BrPWmUBSlKAUpSgFKUoBSlKAUpSgFKUoBSlKAUpXw7AAk6AamgItvrtEXEOpRAJpQOLWP1MYHMs6k2+wB7VVhvdjWLdiWuQS8xB0aZrXAPNFAVR4KvMGpdjMYSjYlhcys2IAPMCy4ZL+yQOzYeKGuBuLu99Mxd5Bmjj+sluNHJPdU/ea5PgrVmvNs219kX+K4JfuyV+inc/6PGMXKv1sg7gP8OM87cnYfIWGl2qwKUrQjFRWEUpScnlmvtDDdrFJGfbVl/ECP3qst0A8MskLAhWDOAfZeNlVweh7wB+6DzqzsVikjF2YDoOZ8gNSfAVE5IVeeXEBcucBVHO2mZj0ZrLp0ReZNU9a4beeyzpFLd7GdnABJNgNSTyFQ7bu9QbRZOyhPBr2eUdV0JSM8iAWbkALsN3fLaFkZLXRAGdTe0jNfsojb2CQWf7KhdM4NVvBsnEY/EBIlaWZzmZjoFHNmPBEGg+QA4CqdNO7suysSZOcDg4yl7XB1sRZT4lLnN5uWPjWxkJ7qgnwUfsKleyt2YcJCGxLh2UAHQ5cx0AVBqxJ0A56aVt/wCk2AtGiRLyFgWt5KQqn8VTOqMOZvHyyFXylxBZ/gg02zprX7GX+7f+lcXaLkAqeXssL/NWq0RtKUa9oT95UI+QUH869mx0UgyYuNGQ6ZyoKAnhmVrmPXgbkdSNK8Srn4VLn3R5KVkeXH8MolttPHL3AVkGoZG1PmD+mo6AVYm5e+QxQ7KYZZhoDawf4cm8Kzb2eiKN27fBMUcXJidiUb7jnVD4G4+7xqByYKSJjdWSWM2ZeDXGvzHEH9jr1dRhJYPYXqRcIqM7OhbEY7DhO8gb6Q5Bvqr2bP0KmNYgOii+t66W7O1PpECSH1vVa3vDn5HQ/Gt7YMa4WWVgl0mbOxX1o21LDL7SFizWGoZjoQe7DpnGM/Ee6hScPCS+lasO0I3Nldbn2SbN+E6j5VtVsJp9Ga1jshvpH3WGIT6RGv10Q1A4yRjUjxYakfEcxas8DimgkSZOKm/n7w+K3+Nqv6qm3w3b7LF9nGLJP3o+isT3l+DWPkwqrqKlJZRYosw8Mlu5uOCySYcG8ci/SYPuOfrkHgrsreUwA9WpYaq3didhHh31D4XECNhz7OX6t0PgBID5xDpVo11prN0MPtcHOohtn9z6pSlWSAUpSgFKUoBSlKAUpSgFKUoBSlKA8rib6zlMHNlNmcCJfvSsEFvxX+Fduo1v831eGX3sRHfyUM36qKjtltg2d1LM0vc0MJgFkcpayqhFvJbJ8u0f5CujuDsb6NhtR35GLt5cEHllAPmxr53ZszTHndU/CXt+tSRRaq+kj4ck2olmTR7UV2jjnOKmjzsERIrKCRZjnLG41Nxk49KlVV/jNrQrjMWskqK3aKAGIHdWKMc/EtTWSar49RpYpz59DojnbS/G3OvaxRyBhdSCOoII+Yr7vWQauCLb37OkkCZBcvMUCj2pmAVdeXcWMfE1Pd0N248BCI1sXaxlfm7/ALKNQB+5JOlugomEhcDNh8VKB4HIApP8kgPxFSmtqiCUU/Yx7ptyaIhtHEmXFSa9zD2jQf8AEZA0j+JyuiDp3/eNfV64/wBOEWPxWHfTtJO0QnmSi3X5BSPjXWvWXqJOVjbNKmKUFg+r14wBBBAIIsQeBB4gjmK8vWLF4pIkaSRgqqLknkBUKJWjqbmTvklgkJJgkyIzG5aFgGiJPMgEpc6ns7njWl6Qd3FmjOIRfrYhc29tBxB6kcR8Rzr63BxRm7eQixuiMvutZnCn7QSWNW+0rDlUrrdrzKtbjGm9s3grLdTC9hLiYPZHZyrfpKl/y9X4VIb1pSxgY/FZfVSOCLyIVmt+F0+dbl6x71ixo1anmCZ6dRY6joeHyrf3YfvTIPVXIQOQLAk2HLlXAxe3cPEbPMmb3QczfhW5ro7lbSSWSYoGGYA99Sp7oA4HW2vGptG2rEQapeAldcreDZolEbe1E4ceXBh5ag/yiutXyy3BFa8llYM6Lw8ldPhzFi8XGv8AFjEqD7VtT+NvyqwcNIGVWHAgEVD9sR22hG3XDsD8JAak+wGvh4D/AMND81FUtNxZJFrUcwizfpSlXioKUpQClKUApSlAKUpQClKUApSlAfNRb0hNlXCtyGJQfiVgKlNRb0oR/wDcjIP4Mkcv4Wt+9RXLMH9iSl4mvuY9xG+tx6n2cQp+DQxsP1NS6oXubKBjMSOU0MEy+JXPG/5CP5ippXOn/QjrULFjFU36QoWhxkqkBkktKtxrZ+Ov3w/wtVyVobS2NBiLdtDHJbQFlBIHg3EfCvbq/qRwc1z2PJQ+GxzRyqIS0TkXzAjIQOTKLaeQ58DwqxNg7TM8WZhZ1JRwOGYdPA6H41t7Y9GGEe0kTPCyXIObMnDXMH1t5MK5G7sYjhGvrnMOOq2CqdddVUNr71Zuop2JZNHT272yQ7vTCLFOp0TEgEf8+JbEebRKpH/JapbUCaQMLG9tDcGxVlN1ZTyYEAg9RUk2LtjOFjlIEh0Vhostua+61tSnEWNrgXqzpL01sl35FbVUtS3Lor30u4F1xQlUlSyqwI5ldCL9RYfOtTY+98wQdoiyqNMwOU+TE92/he/WrR3m2DHjYjE+hGqOOKN18R1H6GxFTxbj43BSyZo2dCxKyQ3YEHqo7ynzHxNNTRu8SOtPcksM7H+uF9FhF/tSx2+S3JrgbzbZlIUyMM17xplIjVvf7Nu9IRyLhV14Nwru4XCztp2cpPTK/wDStqP0cSYqaOTEHs4U1Kj/AGknhp6g6nj0A4iCrTvcTWXpI7fojwrJgy7X+skZwWJJbQBmJPElg2tSvG4pYo2kc2VAWJ8B06mvF7OCMAZUjQADgFVRoB4dKjW2todqy3uEQ5lQ6FmHB5BytxVTwPeOoAW9ZbGqPPZRhXK2fBqYFGAd5BaSV2lkGndZrZUuOOVAiX+xXA3w2iQHDMywR2Vghs00jDMUBuCEVSpaxBOYAEale929cvaGwlx08UDydnG4Z8y+s7AKHRbjKGyojAm+mfTumsur/JZz5mlZ4IceRz9m5OzVkjCBgDawvr1y1MNwMNrNJYeygIA46s1+uhSuxgd28NEAFiBsLXe7cPvaD4CuoiACwAA6CtOrT7JbihbfvWEfVY3kAIBIBY2F+ZsTYdTYE/A1kqIelFyuEzgkGOWJwVJBB7QLcEag97jU05bVkghHc8GHb7/+IjpHhcx8M8pt+UZqS7vrbDwA8RGg+IUD9qguMjlYYl2cSSTKkMbINSiqQpZRwbNI5NtNLiwNhLI958KiuM5+q0YBH0Zj3E1Grm4sg11GmtU6Jxdknn0LV8JKEYnfpXgr2r5TFKUoBSlKAUpSgFKUoBSlKAUpSgPK5+8WA7fDyxWvnQgfeGq/mBXRrw141lYPU8PJVu68qYWeN7GwBjJZmOVHKluJ01VT/LVpVHZ90onleR2bKxzZBYAE+tc8bXueXGu7CgVQo4AADUnQcNTqahphKCafRLdNTaaM1KUqchIRvtvLF2hwIcXygyj3lPqxfzcW+zp7enBOMvqTXnpZ2BacYhAR2gHeH9oosRfhcqF052PS4jOzdrE/Vy6OOfJh1FZWsU92X0aencdnh/ck/wBLr7jx5FxoQeIYXB8wa4SYh3t2a3B9pr2P3QNX+Ar4xAmUXMlv5Y7f9dVVFvoncvUnOzt6WSwLEjpJdvgJB3x5sHrsw71obXUX+xJGR/jZW/w1UuC2zmbIxF+RU6Guh21Tx1NkOM/kglp4S5wWg+8sY9lvxRD9ZBWjjN71Hq5B4klz+FLL/jqve2r5nxoRSx/LiTyAHM0essfC+DxaaCJNjdus5vckjgWtp91R3V42va/ia0vpdcZoZz6x7M+6Mtx95mPH7oI8a1ZMTLGfWDjoct/gVP6gVFJSfiZOsR4RI/pdfE+PVVJdygFmDj1o2XVXXxB5cCLg3BNcJdrpYljlsLkN06jqPGviXFKp7SZczjWHDt6oPKTEeXER+V7a5VcW3wJSSXJb2621zisOkrLlcjvLYjmQGVW7wRrZlvrY116iXoywsq4Zpps3aYiQykv6xXKqppyFlJA6EW0qW1twztWTIljc8Cob6R5boYSNJI7/ABRs37CplUL9J91WFxpYSC/mFt+hrm1Zg0e1PE0yGNj3mUqHMUShTNNzGdQwjiHtSMDw5A3Pj29xNjNiJIpuz7LCYckwx+9IPaJ9t76s/UWHOsG6m7b48o8i9nhIrhEXTOb96x5kn1n66D7NnQwqihUUKqgAACwAHAADgKhoo2rLJ77nJ4RmpSlWiqKUpQClKUApSlAKUpQClKUApSlAKUpQGOVAwIPAgg+Rqut2N7nizQTP3onKfWE5WAOnf1KG1hrcacr3qyKpDfOIw47FAKT3u1IA4K3eYnwAI+YHEiqmrc4pOHZY06Um4suHAbUjl0Bs1r5Gtmt1FiQy6+spI8a3bVSeDxjx4dsRHJLKsdj2cT2MXG8hB5WtZl4d6/HSWejnfuXGydnLEFUg5HLXZmXWxAUAi19eo58lGoc+JL9zq3TOKck+CcY7BJNG0cihkYWIP6joed6qrebdM4SZGZc8WbuOQONjZW0sH/IgeFhb9a+MwiSo0cihkYWIP/7Q+NTzgprDIYWODyipYI5JWyRIST7KXJI+0eJHnpXeO4U8kfeeNCRwNzbzsLfK9TjZ+zo4VyRIFHO3E+JPFj4mtuo4aeKXJ3K+TfBRO1d0Z8EtpUW+uSRDdWF9BewIIFjYgcOYpDNmUHqKuPebADEYaaMi5KEr94C62+OnxqmcPg2yiz8deCaX1t6/7VR1tDynEs6a3cmmZs9feFJu8osTAoK31CyyHKjEcDZFlI+0qnlWL6I3v/4U/wA9SDc3BB5I4GGbNMZpCctikcYCKQCdLl+Pv1BpqZOxKRLbPbBtGPczcfEurzSWjWQgrnuXYe8Ryv4m/hWpvpuDjEHaRKJVXU9kT2gHXJxPktz4VclK1/oRwZ6ulk/NuB2m6sAwBZSbFgLq45kHmDz0Itxqx9wNxS5GKxik37yRvxY8nkHTovz6VNsbu5hZpknkgRpYzdXtrccM1vXAvcBr2Oorq15ChReT2dzksClK1sbjFiXMx04ADUsTwAHM1M2ksshSbeEZJJVWwZgCxstza5sTYdTYE28K528GxExYjWQnIj52A4uLHu35Am1z0B4XuIJvRt98RL2MQRpLHOXsYoIgQWLNwuCAWYc1AHC9TTcvGSS4dXZmdb5I3cWeREspkccizBiBxta+pNQV3KxtJcE06nBJt8nZiiVFCqAqqAAALAAcAAOArLSlWCEUpSgFKUoBSlKAUpSgFKUoBSlKAUpSgFKUoDyqu9KZWLEG1laZEJbmQhICjoLgE9SE92rRqO757qR49YgxytG4OYcTGSO0S/K4AseoFQ31uyGES0z2S3FNYKafDMsyKUvxW3dcHg6A+w41sdP3mW5uPwjOsixd4Nm7NWcMjA3LRKCA631MZ1Gtr6LU63g3YhxUQjKhCq5Y2AHdFrZbc18KqLbm782ElKsCjDUMLkMBwIPtr+Y/Kq06ZVvdEsK6NnhkXhhcWkqh0YMDzHUcQehB0IPA1sVTWw98pIWBmJBNh2qWIe2gEgPdk6a2Ya2NWLsjeqOZbkj7yXK/zL60fxFh7xqWvVRfEuGQ2aeUeVyiQ0rFDMrgMrBlPAqQQfIistWiA8NQST0dtmYrMoUsxUZDopYkDjyBA+FTyvK5lFS7OoyceiB/9ncn9un4D/mrr7q7qnCSPI0gcsoQWUiwvc8T4D5VJaVyq4p5R67JNYZ7SleVIcClaWL2nHFozd7iEUFnt1yLc28eFRPb+/ix91DYnQJHZ5WPQkXRPIZz92obLow7fPodwrlLpEp2ntVIQbm7WvluBYe8xOiLx1PTS50quts7xS4x3TDsAFBEk7XEUScwl/DjzP2Vtbm7RneUZ8W5hhJuIUJMkh6s1ySeFyST4rW1u/sWbaVkjX6Pg0PsjiQeX9pJfnwHO540253v0X9/JcUYUrL5Y3b2L9Lb6Ph8y4ZWDTzMO/Mw4X/9qcBxI4CrXwmHWJFjQWVAFUdANBWLZmzo8PGsUKhUXgOp5knmT1rcq9CCgsIqWWObyxSlKkIxSlKAUpSgFKUoBSlKAUpSgFKUoBSlKAUpSgFKUoBWltTZcWIQxyoGXl1B6qeINbtKAqfeXcWfDlpIbyx87C7gfbT2h4j8qisNkIZHaFhwKklflxX4V+ga4W3t0MLi7mSPK5/iR91vjyb4g1Ws08ZE8L5RK32fvLio+8QJQeLxsQxt1ZCC3kc1d7A+koCwkLKefaRg/IqUt+E1x9uei7GwsXwkyyjjlJ7N/Aa9xvMsPKuDiPp2HuMTh3AHEvGcv94vcNVXXZX+l/35LG+ufaLQwu/0L84vhIwPyeNQPnW6m+MJ4A/3mH/+2qfixsL6mBfNSP6Cs6jDn+G4/mP7NXqtvXuefSqZbbb2xD2T/eYf95awPvvAPdH3pIv/AI2aqvEOH9x/xN/mr7C4cfwb/esf1Jr361zH0aid4r0jxLoCl+WXO9/xCP8AWuPjN9p5riKKUg+8ezUeWXKxHhnNR9McF0jiUE8AOPyUCt2DZG0cR/s4nUHmQIx53ezEeV6823T7f4/4e/4odIxY2WZlP0idYYzr2cVhf8u8fgfOtCDaShhFgoC0jaBipZ28l1JHnp4VK9leigsc+Lnv1SK+vnK4ufgvxqdbG2FBhFywRKg5kas33nPeb4mu4aX1OJ6nyiQfdr0cPIwn2gxJOvZBrnydxwH2V+fKrEhhVFCIoVVFgqgAADgABwFZaVdjFRWEVZScuz2lKV0cilKUApSlAKUpQClKUApSlAKUpQClKUApSlAKUpQClKUApSlAKUpQCvK9pQGhiti4eXWSCJz1aNCfmRWk+52CP+7RjyuP0IpSvMI9yz5XczBD/d1/E/8AmrPDuxhF4YaL4oD/ANV6UptQyzoYfCpGLIioOiqB+lZ6Ur08FKUoBSlKAUpSgFKUoBSlKAUpSgFKUoBSlKA//9k=&quot;&gt;&lt;br&gt;&lt;/div&gt;&lt;/div&gt;" style="text;html=1;strokeColor=none;fillColor=none;align=center;verticalAlign=middle;whiteSpace=wrap;rounded=0;" vertex="1" parent="1">
          <mxGeometry x="2044.5" y="680" width="221" height="240" as="geometry" />
        </mxCell>
        <mxCell id="kpTyDUhgBs5R1ed5H9SP-68" value="&lt;font style=&quot;font-size: 27px;&quot;&gt;Maintains a specific memory format to represent the structure of the data set.&lt;/font&gt;" style="text;html=1;strokeColor=none;fillColor=none;align=left;verticalAlign=middle;whiteSpace=wrap;rounded=0;fontSize=11;fontFamily=Helvetica;fontColor=default;" vertex="1" parent="1">
          <mxGeometry x="1860" y="480" width="590" height="60" as="geometry" />
        </mxCell>
        <mxCell id="kpTyDUhgBs5R1ed5H9SP-69" value="" style="shape=waypoint;sketch=0;fillStyle=solid;size=6;pointerEvents=1;points=[];fillColor=none;resizable=0;rotatable=0;perimeter=centerPerimeter;snapToPoint=1;rounded=1;shadow=1;glass=0;strokeColor=default;strokeWidth=5;align=center;verticalAlign=middle;fontFamily=Helvetica;fontSize=11;fontColor=default;html=1;" vertex="1" parent="1">
          <mxGeometry x="1820" y="500" width="20" height="20" as="geometry" />
        </mxCell>
        <mxCell id="kpTyDUhgBs5R1ed5H9SP-70" value="&lt;font style=&quot;font-size: 27px;&quot;&gt;Dynamically manages the size of the data set and updates the free memory pointer to ensure memory safety.&lt;/font&gt;" style="text;html=1;strokeColor=none;fillColor=none;align=left;verticalAlign=middle;whiteSpace=wrap;rounded=0;fontSize=11;fontFamily=Helvetica;fontColor=default;" vertex="1" parent="1">
          <mxGeometry x="1860" y="565" width="590" height="90" as="geometry" />
        </mxCell>
        <mxCell id="kpTyDUhgBs5R1ed5H9SP-71" value="" style="shape=waypoint;sketch=0;fillStyle=solid;size=6;pointerEvents=1;points=[];fillColor=none;resizable=0;rotatable=0;perimeter=centerPerimeter;snapToPoint=1;rounded=1;shadow=1;glass=0;strokeColor=default;strokeWidth=5;align=center;verticalAlign=middle;fontFamily=Helvetica;fontSize=11;fontColor=default;html=1;" vertex="1" parent="1">
          <mxGeometry x="1820" y="585" width="20" height="20" as="geometry" />
        </mxCell>
        <mxCell id="kpTyDUhgBs5R1ed5H9SP-72" value="" style="shape=waypoint;sketch=0;fillStyle=solid;size=6;pointerEvents=1;points=[];fillColor=none;resizable=0;rotatable=0;perimeter=centerPerimeter;snapToPoint=1;rounded=1;shadow=1;glass=0;strokeColor=default;strokeWidth=5;align=center;verticalAlign=middle;fontFamily=Helvetica;fontSize=11;fontColor=default;html=1;" vertex="1" parent="1">
          <mxGeometry x="780" y="832" width="20" height="20" as="geometry" />
        </mxCell>
        <mxCell id="kpTyDUhgBs5R1ed5H9SP-73" value="&lt;font style=&quot;font-size: 27px;&quot;&gt;Creates an array of &lt;code style=&quot;border: 0px solid rgb(217, 217, 227); box-sizing: border-box; --tw-border-spacing-x: 0; --tw-border-spacing-y: 0; --tw-translate-x: 0; --tw-translate-y: 0; --tw-rotate: 0; --tw-skew-x: 0; --tw-skew-y: 0; --tw-scale-x: 1; --tw-scale-y: 1; --tw-pan-x: ; --tw-pan-y: ; --tw-pinch-zoom: ; --tw-scroll-snap-strictness: proximity; --tw-gradient-from-position: ; --tw-gradient-via-position: ; --tw-gradient-to-position: ; --tw-ordinal: ; --tw-slashed-zero: ; --tw-numeric-figure: ; --tw-numeric-spacing: ; --tw-numeric-fraction: ; --tw-ring-inset: ; --tw-ring-offset-width: 0px; --tw-ring-offset-color: #fff; --tw-ring-color: rgba(69,89,164,.5); --tw-ring-offset-shadow: 0 0 transparent; --tw-ring-shadow: 0 0 transparent; --tw-shadow: 0 0 transparent; --tw-shadow-colored: 0 0 transparent; --tw-blur: ; --tw-brightness: ; --tw-contrast: ; --tw-grayscale: ; --tw-hue-rotate: ; --tw-invert: ; --tw-saturate: ; --tw-sepia: ; --tw-drop-shadow: ; --tw-backdrop-blur: ; --tw-backdrop-brightness: ; --tw-backdrop-contrast: ; --tw-backdrop-grayscale: ; --tw-backdrop-hue-rotate: ; --tw-backdrop-invert: ; --tw-backdrop-opacity: ; --tw-backdrop-saturate: ; --tw-backdrop-sepia: ; font-weight: 600; font-family: &amp;quot;Söhne Mono&amp;quot;, Monaco, &amp;quot;Andale Mono&amp;quot;, &amp;quot;Ubuntu Mono&amp;quot;, monospace !important;&quot;&gt;RentalAssetUpdate&lt;/code&gt;&lt;span style=&quot;font-family: Söhne, ui-sans-serif, system-ui, -apple-system, &amp;quot;Segoe UI&amp;quot;, Roboto, Ubuntu, Cantarell, &amp;quot;Noto Sans&amp;quot;, sans-serif, &amp;quot;Helvetica Neue&amp;quot;, Arial, &amp;quot;Apple Color Emoji&amp;quot;, &amp;quot;Segoe UI Emoji&amp;quot;, &amp;quot;Segoe UI Symbol&amp;quot;, &amp;quot;Noto Color Emoji&amp;quot;;&quot;&gt; structures from the byte-formatted data.&lt;/span&gt;&lt;/font&gt;" style="text;html=1;strokeColor=none;fillColor=none;align=left;verticalAlign=middle;whiteSpace=wrap;rounded=0;fontSize=11;fontFamily=Helvetica;fontColor=default;" vertex="1" parent="1">
          <mxGeometry x="827" y="880" width="813" height="70" as="geometry" />
        </mxCell>
        <mxCell id="kpTyDUhgBs5R1ed5H9SP-74" value="" style="shape=waypoint;sketch=0;fillStyle=solid;size=6;pointerEvents=1;points=[];fillColor=none;resizable=0;rotatable=0;perimeter=centerPerimeter;snapToPoint=1;rounded=1;shadow=1;glass=0;strokeColor=default;strokeWidth=5;align=center;verticalAlign=middle;fontFamily=Helvetica;fontSize=11;fontColor=default;html=1;" vertex="1" parent="1">
          <mxGeometry x="780" y="905" width="20" height="20" as="geometry" />
        </mxCell>
      </root>
    </mxGraphModel>
  </diagram>
</mxfile>
